<svg width="239" height="454" viewBox="0 0 239 454" fill="none" xmlns="http://www.w3.org/2000/svg">
<path d="M226.427 230.711C161.751 211.815 156.745 212.485 154.58 212.887L146.461 214.763C122.107 220.928 91.7984 228.567 67.5789 244.782C56.8898 252.018 42.8181 264.883 27.9346 280.965H28.0699C21.3047 288.201 14.4041 296.108 7.6389 304.283C5.87993 306.427 4.25627 308.571 2.49731 310.581C6.69176 315.807 11.5627 322.106 11.5627 322.24C12.5099 323.446 13.457 324.652 14.4041 325.858C16.7043 323.044 18.8692 320.23 21.0341 317.55C21.1694 317.55 21.1693 317.55 21.1693 317.416C22.3871 315.941 23.6048 314.467 24.8226 312.859V312.993C28.8817 308.035 33.0762 303.344 37.1353 298.922V298.788C52.6953 281.501 67.5788 267.43 78.1326 260.327C99.646 245.854 128.195 238.617 151.197 232.855L156.745 231.381C162.698 232.319 185.835 238.349 209.243 245.05C200.313 259.389 190.435 274.934 187.323 279.491C167.028 292.624 133.472 308.571 111.282 313.395C84.3566 319.292 63.7903 314.601 45.6595 304.149C41.465 308.571 37.4059 313.395 33.2115 318.354C55.4015 332.157 81.2446 338.991 115.477 331.621C141.185 325.992 177.987 308.169 199.366 294.098L200.583 293.294L201.53 292.088C204.642 287.933 225.615 254.431 231.839 244.246L238.333 233.793L226.427 230.711Z" fill="#FAFAFA"/>
<path d="M14.5514 397.155C8.2045 390.317 2.80291 384.685 2.80291 384.685C-1.24828 380.26 -5.43452 376.237 -9.75579 372.617C-14.0771 377.578 -18.2633 382.137 -22.4495 386.428C-20.559 387.903 -18.9385 389.512 -17.183 391.255V391.39C-15.1574 393.267 -12.9967 395.412 -10.9711 397.692C-10.8361 397.692 -8.00027 400.642 -3.94908 404.933C-3.40892 405.469 -2.86876 406.14 -2.3286 406.676C-1.78844 407.346 -1.11324 407.883 -0.573082 408.553C1.18243 410.564 2.93795 412.576 4.82851 414.721C2.12771 417.939 -1.11324 421.56 -3.94908 424.778C-6.78491 421.56 -10.0259 417.805 -12.8617 414.721C-12.0515 413.917 -11.3763 412.978 -10.566 412.174C-14.6172 407.883 -17.7231 404.665 -17.7231 404.665L-17.9932 404.396L-18.2633 404.128C-20.0188 402.117 -21.7743 400.374 -23.6649 398.63C-27.8511 403.324 -31.7673 407.615 -32.4425 408.553L-38.6543 415.258L-32.0374 421.56C-30.2818 423.303 -20.0188 434.969 -11.2412 445.16L-4.21915 453.339L2.93794 445.16C2.93794 445.16 19.2777 426.789 24.4093 420.889L29.4057 414.989L24.5443 408.955C21.4384 404.933 17.7923 400.776 14.5514 397.155Z" fill="#FAFAFA"/>
<path d="M169.029 397.189C160.912 386.773 141.837 365.008 137.508 361.803L136.291 360.868L134.938 360.468C120.463 355.527 90.4302 347.649 71.6261 346.046C56.4746 344.711 42.1347 347.382 28.4713 353.391C20.7603 356.862 13.3198 361.402 6.14991 367.011H6.01462C4.79709 367.945 3.57957 369.014 2.49731 370.082C4.7971 372.218 7.09687 374.622 9.39665 377.159C10.8847 378.361 12.914 380.631 15.6196 383.569C17.5135 382.1 19.2722 380.631 21.0309 379.296C21.0309 379.296 21.1661 379.296 21.1661 379.429C26.7127 375.423 32.3945 372.218 38.0763 369.815C37.941 369.815 37.941 369.681 37.941 369.681C38.4821 369.548 38.888 369.414 39.4291 369.147C40.1055 368.88 40.6467 368.613 41.3231 368.346L41.4583 368.48C50.7928 365.275 60.2624 363.94 70.2733 364.741C84.4778 365.943 110.993 372.218 127.227 377.56C130.338 380.631 138.455 389.978 145.76 398.524C133.45 402.663 122.221 406.402 118.704 407.471C103.282 404.132 76.7668 395.186 62.2917 389.844C59.0449 388.509 52.9572 383.836 45.7873 377.026L45.3815 377.159C39.5644 379.162 33.7473 382.233 28.0655 386.239C38.2116 396.387 48.2224 404.533 55.3923 407.337C70.0027 412.812 99.6293 422.827 116.539 426.165L117.892 426.432L119.38 426.165C120.463 426.165 123.845 425.764 164.294 411.61L176.604 407.471L169.029 397.189Z" fill="#FAFAFA"/>
<path d="M18.325 347.877C15.9294 344.879 13.5339 342.016 11.2714 339.018H11.1383C8.34345 335.474 5.81479 332.203 3.55229 329.068C3.55229 329.068 -0.17416 324.162 -3.76753 319.391C-6.42928 315.984 -9.09103 312.713 -11.7528 309.305C-16.677 313.803 -21.3351 317.756 -25.9932 321.299C-23.4645 324.571 -20.8028 327.978 -18.2741 331.385C-14.8138 336.019 -11.2204 340.653 -11.2204 340.653C-8.55869 344.47 -5.36459 348.695 -1.90431 352.784C-0.573431 354.556 1.02362 356.464 2.48759 358.372C7.67801 354.419 12.8684 350.739 18.325 347.877ZM-3.76753 335.065L-3.90062 334.929H-3.76753H-3.63445L-3.76753 335.065Z" fill="#FAFAFA"/>
<path d="M-66.3283 187.416C-64.0186 210.54 -47.9871 238.804 -19.5922 271.53C-15.1087 276.533 -11.1688 280.996 -10.7612 281.402C-8.17984 284.106 -5.59849 286.54 -3.01714 289.11C-0.979225 291.003 1.19456 293.031 3.23247 295.06C7.30829 290.192 11.3841 285.458 15.4599 280.861C13.2862 278.697 11.2483 276.668 9.07449 274.505H9.21034C7.17242 272.476 5.13452 270.583 3.23247 268.419C3.23247 268.284 -0.0281989 264.903 -3.69644 260.711C-3.8323 260.711 -3.83229 260.846 -3.83229 260.846C-30.461 230.69 -45.4057 204.86 -47.4436 185.522L-48.9381 171.864C-51.7911 146.305 -53.9649 125.885 -52.3346 100.056C-47.7153 92.6182 -25.7059 62.0558 -3.83229 32.4401C18.313 62.3263 40.4583 93.1591 44.67 100.056C46.3003 125.885 44.1266 146.17 41.2735 171.729L39.779 185.522C38.0128 203.102 25.2419 226.227 2.82488 253.138C6.76485 257.601 10.5689 261.658 10.5689 261.658C12.3351 263.551 14.1013 265.309 15.5958 267.067C41.6811 236.234 56.3541 209.458 58.5278 187.551L60.1581 173.757C63.0112 147.657 65.4567 125.074 63.5547 96.6751V95.1876L62.8754 93.8352C60.1581 87.3441 24.6985 39.0664 3.91177 10.9383L-3.83229 0.660645L-11.3046 10.9383C-32.2272 39.0664 -67.6869 87.3441 -70.4041 93.8352L-71.0834 95.1876L-71.2193 96.6751C-73.1213 125.209 -70.6758 147.793 -67.8227 173.757L-66.3283 187.416ZM-4.10401 274.64L-3.96816 274.775L-4.10401 274.91L-4.23988 274.775L-4.10401 274.64Z" fill="#FAFAFA"/>
</svg>
