<svg width="246" height="454" viewBox="0 0 246 454" fill="none" xmlns="http://www.w3.org/2000/svg">
<path d="M210.652 315.418C216.586 311.224 222.789 306.084 229.397 299.861C231.016 298.373 232.634 296.885 234.252 295.397C232.095 293.233 229.937 290.933 227.375 288.228C227.24 288.228 224.677 285.252 221.306 281.599C220.362 282.411 219.553 283.087 218.743 284.034C217.934 284.711 216.99 285.522 216.451 286.199C215.911 286.604 215.507 287.01 214.967 287.551V287.416C209.843 292.151 204.988 296.074 200.268 299.455C200.268 299.455 200.133 299.455 199.998 299.591C199.189 300.132 198.379 300.808 197.705 301.349L197.57 301.214C177.881 314.606 156.303 320.829 126.364 314.335C104.247 309.466 70.8012 293.368 50.5721 280.111C47.3354 275.377 37.4906 259.685 28.7246 245.346C52.0555 238.582 75.1167 232.36 81.0506 231.548L86.7148 233.036C109.506 238.853 137.962 246.158 159.405 260.767C168.44 266.99 180.578 278.217 193.659 292.286C198.245 289.039 202.965 285.116 208.359 280.382C193.929 264.825 180.308 252.245 170.059 245.076C145.784 228.572 115.71 220.997 91.3 214.774L84.4221 213.016L83.3432 212.88C81.0506 212.475 76.0607 211.934 11.7322 230.872L-0.000732422 234.389L6.33772 244.94C12.6762 255.221 33.4447 289.039 36.5465 293.233L37.6254 294.45L38.8392 295.262C60.1472 309.466 96.8293 327.457 122.588 333.138C160.079 341.255 186.781 332.597 210.652 315.418Z" fill="#FAFAFA"/>
<path d="M210.52 385.423C216.445 379.545 223.043 372.465 229.775 364.851C231.93 362.447 233.95 360.042 235.835 357.638C232.603 353.764 229.641 349.757 226.948 346.417C226.948 346.417 225.736 344.814 223.985 342.543C220.888 346.551 217.657 350.291 214.29 354.031C214.156 354.031 214.156 354.298 214.021 354.298C213.482 354.833 213.213 355.367 212.809 355.768H212.674C207.962 360.977 203.518 365.786 199.209 370.061C188.975 380.48 180.223 387.961 175.645 389.697C161.237 395.04 135.114 403.856 119.763 407.33C115.589 406.127 104.413 402.387 92.5635 398.38C99.8348 389.697 108.183 380.346 111.146 377.408C127.169 372.065 153.562 365.786 167.835 364.584C172.278 364.183 179.684 364.183 188.975 366.588C193.419 362.18 198.267 357.237 203.249 351.627C187.09 345.616 173.49 345.482 166.219 346.017C147.502 347.619 117.609 355.501 103.336 360.443L101.855 360.844L100.777 361.779C96.4684 364.985 77.3476 386.758 69.403 397.178L61.7278 407.463L73.8466 411.604C114.108 425.764 117.609 426.164 118.686 426.164L120.033 426.431L121.514 426.164C138.48 422.691 167.835 412.806 182.377 407.33C190.053 404.391 200.152 395.708 210.52 385.423Z" fill="#FAFAFA"/>
<path d="M260.551 397.155C254.204 390.317 248.803 384.685 248.803 384.685C244.752 380.26 240.565 376.237 236.244 372.617C231.923 377.578 227.737 382.137 223.55 386.428C225.441 387.903 227.062 389.512 228.817 391.255V391.39C230.843 393.267 233.003 395.412 235.029 397.692C235.164 397.692 238 400.642 242.051 404.933C242.591 405.469 243.131 406.14 243.671 406.676C244.212 407.346 244.887 407.883 245.427 408.553C247.182 410.564 248.938 412.576 250.829 414.721C248.128 417.939 244.887 421.56 242.051 424.778C239.215 421.56 235.974 417.805 233.138 414.721C233.949 413.917 234.624 412.978 235.434 412.174C231.383 407.883 228.277 404.665 228.277 404.665L228.007 404.396L227.737 404.128C225.981 402.117 224.226 400.374 222.335 398.63C218.149 403.324 214.233 407.615 213.558 408.553L207.346 415.258L213.963 421.56C215.718 423.303 225.981 434.969 234.759 445.16L241.781 453.339L248.938 445.16C248.938 445.16 265.278 426.789 270.409 420.889L275.406 414.989L270.544 408.955C267.438 404.933 263.792 400.776 260.551 397.155Z" fill="#FAFAFA"/>
<path d="M264.325 347.877C261.929 344.879 259.534 342.016 257.271 339.018H257.138C254.343 335.474 251.815 332.203 249.552 329.068C249.552 329.068 245.826 324.162 242.232 319.391C239.571 315.984 236.909 312.713 234.247 309.305C229.323 313.803 224.665 317.756 220.007 321.299C222.536 324.571 225.197 327.978 227.726 331.385C231.186 336.019 234.78 340.653 234.78 340.653C237.441 344.47 240.635 348.695 244.096 352.784C245.427 354.556 247.024 356.464 248.488 358.372C253.678 354.419 258.868 350.739 264.325 347.877ZM242.232 335.065L242.099 334.929H242.232H242.366L242.232 335.065Z" fill="#FAFAFA"/>
<path d="M179.672 187.416C181.982 210.54 198.013 238.804 226.408 271.53C230.892 276.533 234.831 280.996 235.239 281.402C237.82 284.106 240.402 286.54 242.983 289.11C245.021 291.003 247.195 293.031 249.233 295.06C253.309 290.192 257.384 285.458 261.46 280.861C259.286 278.697 257.249 276.668 255.075 274.505H255.211C253.173 272.476 251.135 270.583 249.233 268.419C249.233 268.284 245.972 264.903 242.304 260.711C242.168 260.711 242.168 260.846 242.168 260.846C215.539 230.69 200.595 204.86 198.557 185.522L197.062 171.864C194.209 146.305 192.035 125.885 193.666 100.056C198.285 92.6182 220.294 62.0558 242.168 32.4401C264.313 62.3263 286.459 93.1591 290.67 100.056C292.301 125.885 290.127 146.17 287.274 171.729L285.779 185.522C284.013 203.102 271.242 226.227 248.825 253.138C252.765 257.601 256.569 261.658 256.569 261.658C258.335 263.551 260.102 265.309 261.596 267.067C287.681 236.234 302.354 209.458 304.528 187.551L306.158 173.757C309.011 147.657 311.457 125.074 309.555 96.6751V95.1876L308.876 93.8352C306.158 87.3441 270.699 39.0664 249.912 10.9383L242.168 0.660645L234.696 10.9383C213.773 39.0664 178.313 87.3441 175.596 93.8352L174.917 95.1876L174.781 96.6751C172.879 125.209 175.324 147.793 178.178 173.757L179.672 187.416ZM241.896 274.64L242.032 274.775L241.896 274.91L241.76 274.775L241.896 274.64Z" fill="#FAFAFA"/>
</svg>
