<svg width="24" height="25" viewBox="0 0 24 25" fill="none" xmlns="http://www.w3.org/2000/svg">
<path fill-rule="evenodd" clip-rule="evenodd" d="M7.23899 4.14645C7.37553 4.00991 7.57139 3.96885 7.7436 4.02326C7.81769 4.04666 7.88741 4.08772 7.94615 4.14646L7.94954 4.14989L11.5387 7.73904C11.734 7.9343 11.734 8.25088 11.5387 8.44615C11.3434 8.64141 11.0268 8.64141 10.8316 8.44615L8.01544 5.63V16.5H7.01544V5.78427L4.35355 8.44616C4.15829 8.64142 3.84171 8.64142 3.64645 8.44616C3.45118 8.2509 3.45118 7.93432 3.64645 7.73905L7.23431 4.15119L7.23899 4.14645ZM15.9509 20.8488C15.9493 20.8504 15.9478 20.852 15.9462 20.8536C15.8486 20.9512 15.7206 21 15.5926 21C15.4931 21 15.3936 20.9705 15.3084 20.9115C15.284 20.8946 15.2608 20.8753 15.239 20.8535M15.9509 20.8488L19.5387 17.2609C19.734 17.0657 19.734 16.7491 19.5387 16.5538C19.3435 16.3586 19.0269 16.3586 18.8316 16.5538L16.1697 19.2157L16.1697 8.5H15.1697L15.1697 19.37L12.3536 16.5539C12.1583 16.3586 11.8418 16.3586 11.6465 16.5539C11.4512 16.7491 11.4512 17.0657 11.6465 17.261L15.2357 20.8502" fill="#363636"/>
</svg>
