<svg width="24" height="24" viewBox="0 0 24 24" fill="none" xmlns="http://www.w3.org/2000/svg">
<path fill-rule="evenodd" clip-rule="evenodd" d="M12.6289 3C10.3229 3 8.45361 4.86933 8.45361 7.17526V7.63918H4V18.4021C4 19.8369 5.16314 21 6.59794 21H18.2887C19.7235 21 20.8866 19.8369 20.8866 18.4021V7.63918H16.8041V7.17526C16.8041 4.86933 14.9348 3 12.6289 3ZM15.6907 8.75258V10.6082H16.8041V8.75258H19.7732V18.4021C19.7732 19.2219 19.1085 19.8866 18.2887 19.8866H6.59794C5.77805 19.8866 5.1134 19.2219 5.1134 18.4021V8.75258H8.45361V10.6082H9.56701V8.75258H15.6907ZM15.6907 7.63918V7.17526C15.6907 5.48424 14.3199 4.1134 12.6289 4.1134C10.9378 4.1134 9.56701 5.48424 9.56701 7.17526V7.63918H15.6907Z" fill="#ffffff"/>
</svg>
