<svg width="25" height="24" viewBox="0 0 25 24" fill="none" xmlns="http://www.w3.org/2000/svg">
<path fill-rule="evenodd" clip-rule="evenodd" d="M12.4323 7.16831C12.9791 7.16831 13.4224 6.72503 13.4224 6.17821C13.4224 5.6314 12.9791 5.18812 12.4323 5.18812C11.8854 5.18812 11.4422 5.6314 11.4422 6.17821C11.4422 6.72503 11.8854 7.16831 12.4323 7.16831ZM14.5783 6.55334C14.4005 7.57758 13.5073 8.35643 12.4323 8.35643C11.5708 8.35643 10.8262 7.85636 10.4728 7.13068L7.94822 7.4857L11.2019 15.6616L11.1476 15.6832H11.2441C11.2441 18.1036 9.23472 20.0396 6.78869 20.0396C4.34266 20.0396 2.33325 18.1036 2.33325 15.6832H2.42951L2.3752 15.6616L5.92221 6.74855L5.8977 6.57424L10.2648 5.96012C10.3742 4.85953 11.3029 4 12.4323 4C13.35 4 14.1351 4.56752 14.4559 5.37075L17.076 5.0023L17.0808 4.9901H17.1627L18.5709 4.79207L18.5988 4.9901H18.6748L22.2912 14.0773L22.2367 14.099H22.3332C22.3332 16.5194 20.3238 18.4554 17.8778 18.4554C15.4317 18.4554 13.4223 16.5194 13.4223 14.099H13.5189L13.4645 14.0773L16.5702 6.27323L14.5783 6.55334ZM14.6231 14.3792C14.769 15.9859 16.1575 17.2673 17.8778 17.2673C19.5981 17.2673 20.9867 15.9858 21.1324 14.3789L17.8778 6.20066L14.6231 14.3792ZM6.78869 18.8515C5.06832 18.8515 3.6797 17.5699 3.534 15.9629L6.78854 7.78488L10.0433 15.9636C9.89732 17.5702 8.50884 18.8515 6.78869 18.8515Z" fill="#091278"/>
</svg>
