<svg width="61" height="60" viewBox="0 0 61 60" fill="none" xmlns="http://www.w3.org/2000/svg">
<rect x="0.75" width="60" height="60" rx="30" fill="#091278"/>
<path fill-rule="evenodd" clip-rule="evenodd" d="M15.1506 22.9507H25.8252V24.3392H15.1506V22.9507Z" fill="white"/>
<path fill-rule="evenodd" clip-rule="evenodd" d="M17.7107 25.7278H28.3852V27.1163H17.7107V25.7278Z" fill="white"/>
<path fill-rule="evenodd" clip-rule="evenodd" d="M16.2351 31.3689L23.0911 31.3689L23.0911 32.7575L16.2351 32.7575L16.2351 31.3689Z" fill="white"/>
<path fill-rule="evenodd" clip-rule="evenodd" d="M30.9888 35.2744L37.8448 35.2744L37.8448 36.663L30.9888 36.663L30.9888 35.2744Z" fill="white"/>
<path fill-rule="evenodd" clip-rule="evenodd" d="M12.4167 28.5046L25.8684 28.5046L25.8684 29.8932L12.4167 29.8932L12.4167 28.5046Z" fill="white"/>
<path fill-rule="evenodd" clip-rule="evenodd" d="M26.6758 37.4272C27.4667 37.4272 28.1078 36.786 28.1078 35.9951C28.1078 35.2042 27.4667 34.563 26.6758 34.563C25.8848 34.563 25.2437 35.2042 25.2437 35.9951C25.2437 36.786 25.8848 37.4272 26.6758 37.4272ZM26.6758 39.1457C28.4158 39.1457 29.8264 37.7351 29.8264 35.9951C29.8264 34.2551 28.4158 32.8445 26.6758 32.8445C24.9357 32.8445 23.5251 34.2551 23.5251 35.9951C23.5251 37.7351 24.9357 39.1457 26.6758 39.1457Z" fill="white"/>
<path fill-rule="evenodd" clip-rule="evenodd" d="M42.2104 37.4272C43.0013 37.4272 43.6425 36.786 43.6425 35.9951C43.6425 35.2042 43.0013 34.563 42.2104 34.563C41.4195 34.563 40.7783 35.2042 40.7783 35.9951C40.7783 36.786 41.4195 37.4272 42.2104 37.4272ZM42.2104 39.1457C43.9505 39.1457 45.361 37.7351 45.361 35.9951C45.361 34.2551 43.9505 32.8445 42.2104 32.8445C40.4704 32.8445 39.0598 34.2551 39.0598 35.9951C39.0598 37.7351 40.4704 39.1457 42.2104 39.1457Z" fill="white"/>
<path fill-rule="evenodd" clip-rule="evenodd" d="M35.5017 20C39.8171 20 42.9943 21.8228 45.1895 24.0878C47.3554 26.3225 48.5775 28.9957 49.0493 30.8223L49.0835 30.8223V33.0177C49.0835 34.3992 48.6798 35.439 47.7822 36.0707C46.959 36.65 45.8919 36.7495 44.9178 36.7495V35.0138C45.8531 35.0138 46.4349 34.8964 46.7833 34.6512C47.0572 34.4584 47.3478 34.0663 47.3478 33.0177V31.1767C46.926 29.6039 45.8422 27.2552 43.9432 25.2958C42.0205 23.312 39.2746 21.7357 35.5017 21.7357H19.7068V20H35.5017Z" fill="white"/>
<path fill-rule="evenodd" clip-rule="evenodd" d="M19.6632 33.8082V32.0198H21.0518V33.8799L21.0477 33.9173C21.0247 34.1286 21.0663 34.4495 21.236 34.6957C21.3771 34.9002 21.6667 35.144 22.3535 35.144H24.7401V36.5326H22.3535C21.27 36.5326 20.5254 36.1111 20.0929 35.4839C19.7011 34.9157 19.6224 34.2614 19.6632 33.8082Z" fill="white"/>
<path fill-rule="evenodd" clip-rule="evenodd" d="M37.1937 26.5891V23.2112H38.5823V26.6032L38.5821 26.6106C38.5773 26.8369 38.645 27.1904 38.8425 27.467C39.0136 27.7066 39.3152 27.941 39.9275 27.941H44.5271V29.3295H39.9275C38.8735 29.3295 38.1481 28.884 37.7124 28.2739C37.3056 27.7041 37.1857 27.0423 37.1937 26.5891Z" fill="white"/>
</svg>
