<svg width="61" height="60" viewBox="0 0 61 60" fill="none" xmlns="http://www.w3.org/2000/svg">
<rect x="0.25" width="60" height="60" rx="30" fill="#091278"/>
<path fill-rule="evenodd" clip-rule="evenodd" d="M33.2981 25.9536H16.8543V27.8368C18.6784 28.4939 19.9826 30.2399 19.9826 32.2905C19.9826 34.3411 18.6784 36.0871 16.8543 36.7443V38.6274H33.2981V25.9536ZM15.25 35.4189C16.9777 35.4189 18.3783 34.0183 18.3783 32.2905C18.3783 30.5628 16.9777 29.1622 15.25 29.1622V24.3494H34.9024V40.2317H15.25V35.4189Z" fill="white"/>
<path fill-rule="evenodd" clip-rule="evenodd" d="M37.6297 38.6274L43.6457 38.6274L43.6457 35.7917C42.3202 35.1833 41.3997 33.8444 41.3997 32.2905C41.3997 30.7366 42.3202 29.3977 43.6457 28.7894L43.6457 25.9536L37.6297 25.9536L37.6297 38.6274ZM45.25 30.0445C44.0096 30.0445 43.004 31.0501 43.004 32.2905C43.004 33.5309 44.0096 34.5365 45.25 34.5365L45.25 40.2317L36.0254 40.2317L36.0254 24.3493L45.25 24.3493L45.25 30.0445Z" fill="white"/>
<path fill-rule="evenodd" clip-rule="evenodd" d="M31.774 29.8841H22.0681V28.2798H31.774V29.8841Z" fill="white"/>
<path fill-rule="evenodd" clip-rule="evenodd" d="M31.7742 33.7344L26.1592 33.7344L26.1592 32.1301L31.7742 32.1301L31.7742 33.7344Z" fill="white"/>
<path fill-rule="evenodd" clip-rule="evenodd" d="M35.143 22.1033L35.143 18.3333L36.7473 18.3333L36.7473 22.1033L35.143 22.1033Z" fill="white"/>
<path fill-rule="evenodd" clip-rule="evenodd" d="M33.508 23.3962L30.8422 20.7303L31.9766 19.5959L34.6424 22.2618L33.508 23.3962Z" fill="white"/>
<path fill-rule="evenodd" clip-rule="evenodd" d="M38.512 23.3962L41.1779 20.7303L40.0435 19.5959L37.3776 22.2618L38.512 23.3962Z" fill="white"/>
</svg>
