<svg width="360" height="40" viewBox="0 0 360 40" fill="none" xmlns="http://www.w3.org/2000/svg">
<line y1="19.5" x2="152" y2="19.5" stroke="url(#paint0_linear_217_6808)"/>
<path d="M177.528 26.1831C177.943 25.8899 178.377 25.5304 178.839 25.0953C178.952 24.9912 179.065 24.8871 179.178 24.7831C179.028 24.6317 178.877 24.4709 178.697 24.2817C178.688 24.2817 178.509 24.0736 178.273 23.8182C178.207 23.875 178.15 23.9223 178.094 23.9885C178.037 24.0358 177.971 24.0925 177.934 24.1398C177.896 24.1682 177.868 24.1966 177.83 24.2344V24.225C177.471 24.5561 177.132 24.8304 176.802 25.0669C176.802 25.0669 176.792 25.0669 176.783 25.0763C176.726 25.1142 176.67 25.1615 176.623 25.1993L176.613 25.1899C175.236 26.1264 173.727 26.5615 171.634 26.1074C170.087 25.7669 167.748 24.6412 166.334 23.7141C166.107 23.3831 165.419 22.2857 164.806 21.283C166.437 20.81 168.05 20.3749 168.465 20.3181L168.861 20.4222C170.455 20.8289 172.445 21.3398 173.944 22.3614C174.576 22.7966 175.425 23.5817 176.34 24.5655C176.66 24.3385 176.991 24.0642 177.368 23.7331C176.359 22.6452 175.406 21.7655 174.689 21.2641C172.992 20.11 170.889 19.5803 169.182 19.1451L168.701 19.0221L168.625 19.0127C168.465 18.9843 168.116 18.9465 163.618 20.2708L162.797 20.5168L163.24 21.2546C163.684 21.9736 165.136 24.3385 165.353 24.6317L165.428 24.7169L165.513 24.7736C167.003 25.7669 169.568 27.025 171.37 27.4223C173.992 27.9899 175.859 27.3845 177.528 26.1831Z" fill="#E1E1E1"/>
<path d="M195.834 20.2596C191.311 18.9382 190.961 18.9851 190.81 19.0132L190.242 19.1444C188.539 19.5754 186.419 20.1096 184.726 21.2436C183.978 21.7496 182.994 22.6493 181.953 23.7738H181.963C181.49 24.2799 181.007 24.8328 180.534 25.4044C180.411 25.5544 180.298 25.7043 180.175 25.8449C180.468 26.2104 180.809 26.6508 180.809 26.6602C180.875 26.7445 180.941 26.8289 181.007 26.9132C181.168 26.7164 181.319 26.5196 181.471 26.3322C181.48 26.3322 181.48 26.3322 181.48 26.3228C181.565 26.2198 181.651 26.1167 181.736 26.0042V26.0136C182.02 25.6668 182.313 25.3388 182.597 25.0296V25.0202C183.685 23.8113 184.726 22.8273 185.464 22.3306C186.968 21.3185 188.965 20.8125 190.573 20.4095L190.961 20.3064C191.377 20.372 192.995 20.7937 194.632 21.2623C194.008 22.265 193.317 23.3521 193.099 23.6707C191.68 24.5891 189.334 25.7043 187.782 26.0417C185.899 26.454 184.461 26.126 183.193 25.3951C182.9 25.7043 182.616 26.0417 182.322 26.3884C183.874 27.3537 185.681 27.8316 188.075 27.3162C189.873 26.9226 192.447 25.6762 193.942 24.6922L194.027 24.636L194.093 24.5516C194.311 24.2611 195.777 21.9183 196.212 21.2061L196.667 20.4751L195.834 20.2596Z" fill="#E1E1E1"/>
<path d="M177.519 31.0786C177.933 30.6676 178.395 30.1725 178.865 29.6401C179.016 29.4719 179.157 29.3038 179.289 29.1356C179.063 28.8647 178.856 28.5845 178.668 28.351C178.668 28.351 178.583 28.2389 178.46 28.0801C178.244 28.3603 178.018 28.6219 177.782 28.8834C177.773 28.8834 177.773 28.9021 177.764 28.9021C177.726 28.9395 177.707 28.9768 177.679 29.0049H177.669C177.34 29.3692 177.029 29.7055 176.728 30.0044C176.012 30.733 175.4 31.2561 175.08 31.3775C174.072 31.7512 172.246 32.3677 171.172 32.6106C170.88 32.5265 170.099 32.2649 169.27 31.9847C169.779 31.3775 170.362 30.7236 170.57 30.5181C171.69 30.1445 173.536 29.7055 174.534 29.6214C174.845 29.5934 175.362 29.5934 176.012 29.7615C176.323 29.4532 176.662 29.1076 177.01 28.7153C175.88 28.2949 174.929 28.2856 174.421 28.323C173.112 28.435 171.022 28.9862 170.023 29.3318L169.92 29.3598L169.845 29.4252C169.543 29.6494 168.206 31.172 167.651 31.9006L167.114 32.6199L167.961 32.9095C170.777 33.8997 171.022 33.9277 171.097 33.9277L171.191 33.9464L171.295 33.9277C172.481 33.6848 174.534 32.9936 175.551 32.6106C176.088 32.4051 176.794 31.7979 177.519 31.0786Z" fill="#E1E1E1"/>
<path d="M181.018 31.8991C180.574 31.4209 180.196 31.027 180.196 31.027C179.913 30.7176 179.62 30.4363 179.318 30.1831C179.016 30.5301 178.723 30.8489 178.43 31.1489C178.562 31.2521 178.676 31.3646 178.798 31.4865V31.4959C178.94 31.6272 179.091 31.7772 179.233 31.9366C179.242 31.9366 179.441 32.1429 179.724 32.443C179.762 32.4805 179.799 32.5273 179.837 32.5648C179.875 32.6117 179.922 32.6492 179.96 32.6961C180.083 32.8368 180.205 32.9774 180.338 33.1275C180.149 33.3525 179.922 33.6057 179.724 33.8307C179.526 33.6057 179.299 33.3431 179.101 33.1275C179.157 33.0712 179.204 33.0056 179.261 32.9493C178.978 32.6492 178.761 32.4242 178.761 32.4242L178.742 32.4054L178.723 32.3867C178.6 32.246 178.477 32.1241 178.345 32.0022C178.052 32.3304 177.778 32.6305 177.731 32.6961L177.297 33.165L177.76 33.6057C177.882 33.7276 178.6 34.5434 179.214 35.256L179.705 35.828L180.205 35.256C180.205 35.256 181.348 33.9714 181.707 33.5588L182.056 33.1462L181.716 32.7243C181.499 32.443 181.244 32.1523 181.018 31.8991Z" fill="#E1E1E1"/>
<path d="M191.82 31.9015C191.252 31.1731 189.919 29.651 189.616 29.4269L189.531 29.3616L189.436 29.3336C188.424 28.9881 186.324 28.4371 185.009 28.3251C183.949 28.2317 182.946 28.4185 181.991 28.8387C181.452 29.0814 180.931 29.3989 180.43 29.7911H180.421C180.335 29.8565 180.25 29.9312 180.175 30.0059C180.335 30.1553 180.496 30.3234 180.657 30.5008C180.761 30.5848 180.903 30.7436 181.092 30.949C181.225 30.8463 181.348 30.7436 181.471 30.6502C181.471 30.6502 181.48 30.6502 181.48 30.6595C181.868 30.3794 182.265 30.1553 182.663 29.9872C182.653 29.9872 182.653 29.9779 182.653 29.9779C182.691 29.9685 182.719 29.9592 182.757 29.9405C182.805 29.9218 182.842 29.9032 182.89 29.8845L182.899 29.8938C183.552 29.6697 184.214 29.5763 184.914 29.6324C185.907 29.7164 187.762 30.1553 188.897 30.5288C189.114 30.7436 189.682 31.3972 190.193 31.9948C189.332 32.2843 188.547 32.5458 188.301 32.6205C187.222 32.387 185.368 31.7614 184.356 31.3879C184.129 31.2945 183.703 30.9677 183.202 30.4914L183.173 30.5008C182.767 30.6409 182.36 30.8556 181.963 31.1358C182.672 31.8454 183.372 32.415 183.874 32.6111C184.895 32.994 186.967 33.6943 188.15 33.9278L188.244 33.9464L188.348 33.9278C188.424 33.9278 188.66 33.8997 191.489 32.9099L192.35 32.6205L191.82 31.9015Z" fill="#E1E1E1"/>
<path d="M181.281 28.4529C181.114 28.2433 180.946 28.0431 180.788 27.8334H180.779C180.583 27.5856 180.407 27.3569 180.248 27.1376C180.248 27.1376 179.988 26.7945 179.736 26.4609C179.55 26.2226 179.364 25.9939 179.178 25.7556C178.834 26.0701 178.508 26.3465 178.182 26.5944C178.359 26.8231 178.545 27.0614 178.722 27.2997C178.964 27.6237 179.215 27.9478 179.215 27.9478C179.401 28.2147 179.625 28.5101 179.867 28.7961C179.96 28.92 180.072 29.0534 180.174 29.1868C180.537 28.9104 180.9 28.6531 181.281 28.4529ZM179.736 27.557L179.727 27.5475H179.736H179.746L179.736 27.557Z" fill="#E1E1E1"/>
<path d="M175.362 17.2319C175.523 18.849 176.644 20.8255 178.63 23.114C178.943 23.4639 179.219 23.776 179.247 23.8043C179.428 23.9935 179.608 24.1637 179.789 24.3434C179.931 24.4758 180.084 24.6176 180.226 24.7595C180.511 24.419 180.796 24.0881 181.081 23.7665C180.929 23.6152 180.787 23.4734 180.635 23.3221H180.644C180.502 23.1802 180.359 23.0478 180.226 22.8965C180.226 22.887 179.998 22.6506 179.741 22.3575C179.732 22.3575 179.732 22.3669 179.732 22.3669C177.87 20.2581 176.825 18.4518 176.682 17.0995L176.578 16.1444C176.378 14.357 176.226 12.9291 176.34 11.1228C176.663 10.6027 178.202 8.46549 179.732 6.39446C181.281 8.4844 182.829 10.6405 183.124 11.1228C183.238 12.9291 183.086 14.3476 182.886 16.1349L182.782 17.0995C182.658 18.3289 181.765 19.946 180.198 21.8279C180.473 22.14 180.739 22.4237 180.739 22.4237C180.863 22.5561 180.986 22.679 181.091 22.8019C182.915 20.6458 183.941 18.7734 184.093 17.2414L184.207 16.2768C184.406 14.4516 184.577 12.8723 184.444 10.8864V10.7824L184.397 10.6878C184.207 10.2339 181.727 6.85784 180.274 4.89083L179.732 4.17212L179.209 4.89083C177.746 6.85784 175.267 10.2339 175.077 10.6878L175.029 10.7824L175.02 10.8864C174.887 12.8818 175.058 14.4611 175.257 16.2768L175.362 17.2319ZM179.713 23.3315L179.722 23.341L179.713 23.3504L179.703 23.341L179.713 23.3315Z" fill="#E1E1E1"/>
<line x1="208" y1="19.5" x2="360" y2="19.5" stroke="url(#paint1_linear_217_6808)"/>
<defs>
<linearGradient id="paint0_linear_217_6808" x1="152" y1="20.9999" x2="0" y2="20.9999" gradientUnits="userSpaceOnUse">
<stop stop-color="#E1E1E1"/>
<stop offset="1" stop-color="#E1E1E1" stop-opacity="0"/>
</linearGradient>
<linearGradient id="paint1_linear_217_6808" x1="208" y1="21" x2="360" y2="21" gradientUnits="userSpaceOnUse">
<stop stop-color="#E1E1E1"/>
<stop offset="1" stop-color="#E1E1E1" stop-opacity="0"/>
</linearGradient>
</defs>
</svg>
