<svg width="1276" height="40" viewBox="0 0 1276 40" fill="none" xmlns="http://www.w3.org/2000/svg">
<line y1="19.5" x2="610" y2="19.5" stroke="url(#paint0_linear_208_4850)"/>
<path d="M635.528 26.1831C635.943 25.8899 636.377 25.5304 636.839 25.0953C636.952 24.9912 637.065 24.8871 637.178 24.7831C637.028 24.6317 636.877 24.4709 636.697 24.2817C636.688 24.2817 636.509 24.0736 636.273 23.8182C636.207 23.875 636.15 23.9223 636.094 23.9885C636.037 24.0358 635.971 24.0925 635.934 24.1398C635.896 24.1682 635.868 24.1966 635.83 24.2344V24.225C635.471 24.5561 635.132 24.8304 634.802 25.0669C634.802 25.0669 634.792 25.0669 634.783 25.0763C634.726 25.1142 634.67 25.1615 634.623 25.1993L634.613 25.1899C633.236 26.1264 631.727 26.5615 629.634 26.1074C628.087 25.7669 625.748 24.6412 624.334 23.7141C624.107 23.3831 623.419 22.2857 622.806 21.283C624.437 20.81 626.05 20.3749 626.465 20.3181L626.861 20.4222C628.455 20.8289 630.445 21.3398 631.944 22.3614C632.576 22.7966 633.425 23.5817 634.34 24.5655C634.66 24.3385 634.991 24.0642 635.368 23.7331C634.359 22.6452 633.406 21.7655 632.689 21.2641C630.992 20.11 628.889 19.5803 627.182 19.1451L626.701 19.0221L626.625 19.0127C626.465 18.9843 626.116 18.9465 621.618 20.2708L620.797 20.5168L621.24 21.2546C621.684 21.9736 623.136 24.3385 623.353 24.6317L623.428 24.7169L623.513 24.7736C625.003 25.7669 627.568 27.025 629.37 27.4223C631.992 27.9899 633.859 27.3845 635.528 26.1831Z" fill="#E1E1E1"/>
<path d="M653.834 20.2596C649.311 18.9382 648.961 18.9851 648.81 19.0132L648.242 19.1444C646.539 19.5754 644.419 20.1096 642.726 21.2436C641.978 21.7496 640.994 22.6493 639.953 23.7738H639.963C639.49 24.2799 639.007 24.8328 638.534 25.4044C638.411 25.5544 638.298 25.7043 638.175 25.8449C638.468 26.2104 638.809 26.6508 638.809 26.6602C638.875 26.7445 638.941 26.8289 639.007 26.9132C639.168 26.7164 639.319 26.5196 639.471 26.3322C639.48 26.3322 639.48 26.3322 639.48 26.3228C639.565 26.2198 639.651 26.1167 639.736 26.0042V26.0136C640.02 25.6668 640.313 25.3388 640.597 25.0296V25.0202C641.685 23.8113 642.726 22.8273 643.464 22.3306C644.968 21.3185 646.965 20.8125 648.573 20.4095L648.961 20.3064C649.377 20.372 650.995 20.7937 652.632 21.2623C652.008 22.265 651.317 23.3521 651.099 23.6707C649.68 24.5891 647.334 25.7043 645.782 26.0417C643.899 26.454 642.461 26.126 641.193 25.3951C640.9 25.7043 640.616 26.0417 640.322 26.3884C641.874 27.3537 643.681 27.8316 646.075 27.3162C647.873 26.9226 650.447 25.6762 651.942 24.6922L652.027 24.636L652.093 24.5516C652.311 24.2611 653.777 21.9183 654.212 21.2061L654.667 20.4751L653.834 20.2596Z" fill="#E1E1E1"/>
<path d="M635.519 31.0786C635.933 30.6676 636.395 30.1725 636.865 29.6401C637.016 29.4719 637.157 29.3038 637.289 29.1356C637.063 28.8647 636.856 28.5845 636.668 28.351C636.668 28.351 636.583 28.2389 636.46 28.0801C636.244 28.3603 636.018 28.6219 635.782 28.8834C635.773 28.8834 635.773 28.9021 635.764 28.9021C635.726 28.9395 635.707 28.9768 635.679 29.0049H635.669C635.34 29.3692 635.029 29.7055 634.728 30.0044C634.012 30.733 633.4 31.2561 633.08 31.3775C632.072 31.7512 630.246 32.3677 629.172 32.6106C628.88 32.5265 628.099 32.2649 627.27 31.9847C627.779 31.3775 628.362 30.7236 628.57 30.5181C629.69 30.1445 631.536 29.7055 632.534 29.6214C632.845 29.5934 633.362 29.5934 634.012 29.7615C634.323 29.4532 634.662 29.1076 635.01 28.7153C633.88 28.2949 632.929 28.2856 632.421 28.323C631.112 28.435 629.022 28.9862 628.023 29.3318L627.92 29.3598L627.845 29.4252C627.543 29.6494 626.206 31.172 625.651 31.9006L625.114 32.6199L625.961 32.9095C628.777 33.8997 629.022 33.9277 629.097 33.9277L629.191 33.9464L629.295 33.9277C630.481 33.6848 632.534 32.9936 633.551 32.6106C634.088 32.4051 634.794 31.7979 635.519 31.0786Z" fill="#E1E1E1"/>
<path d="M639.018 31.8991C638.574 31.4209 638.196 31.027 638.196 31.027C637.913 30.7176 637.62 30.4363 637.318 30.1831C637.016 30.5301 636.723 30.8489 636.43 31.1489C636.562 31.2521 636.676 31.3646 636.798 31.4865V31.4959C636.94 31.6272 637.091 31.7772 637.233 31.9366C637.242 31.9366 637.441 32.1429 637.724 32.443C637.762 32.4805 637.799 32.5273 637.837 32.5648C637.875 32.6117 637.922 32.6492 637.96 32.6961C638.083 32.8368 638.205 32.9774 638.338 33.1275C638.149 33.3525 637.922 33.6057 637.724 33.8307C637.526 33.6057 637.299 33.3431 637.101 33.1275C637.157 33.0712 637.204 33.0056 637.261 32.9493C636.978 32.6492 636.761 32.4242 636.761 32.4242L636.742 32.4054L636.723 32.3867C636.6 32.246 636.477 32.1241 636.345 32.0022C636.052 32.3304 635.778 32.6305 635.731 32.6961L635.297 33.165L635.76 33.6057C635.882 33.7276 636.6 34.5434 637.214 35.256L637.705 35.828L638.205 35.256C638.205 35.256 639.348 33.9714 639.707 33.5588L640.056 33.1462L639.716 32.7243C639.499 32.443 639.244 32.1523 639.018 31.8991Z" fill="#E1E1E1"/>
<path d="M649.82 31.9015C649.252 31.1731 647.919 29.651 647.616 29.4269L647.531 29.3616L647.436 29.3336C646.424 28.9881 644.324 28.4371 643.009 28.3251C641.949 28.2317 640.946 28.4185 639.991 28.8387C639.452 29.0814 638.931 29.3989 638.43 29.7911H638.421C638.335 29.8565 638.25 29.9312 638.175 30.0059C638.335 30.1553 638.496 30.3234 638.657 30.5008C638.761 30.5848 638.903 30.7436 639.092 30.949C639.225 30.8463 639.348 30.7436 639.471 30.6502C639.471 30.6502 639.48 30.6502 639.48 30.6595C639.868 30.3794 640.265 30.1553 640.663 29.9872C640.653 29.9872 640.653 29.9779 640.653 29.9779C640.691 29.9685 640.719 29.9592 640.757 29.9405C640.805 29.9218 640.842 29.9032 640.89 29.8845L640.899 29.8938C641.552 29.6697 642.214 29.5763 642.914 29.6324C643.907 29.7164 645.762 30.1553 646.897 30.5288C647.114 30.7436 647.682 31.3972 648.193 31.9948C647.332 32.2843 646.547 32.5458 646.301 32.6205C645.222 32.387 643.368 31.7614 642.356 31.3879C642.129 31.2945 641.703 30.9677 641.202 30.4914L641.173 30.5008C640.767 30.6409 640.36 30.8556 639.963 31.1358C640.672 31.8454 641.372 32.415 641.874 32.6111C642.895 32.994 644.967 33.6943 646.15 33.9278L646.244 33.9464L646.348 33.9278C646.424 33.9278 646.66 33.8997 649.489 32.9099L650.35 32.6205L649.82 31.9015Z" fill="#E1E1E1"/>
<path d="M639.282 28.4529C639.114 28.2433 638.947 28.0431 638.788 27.8334H638.779C638.584 27.5856 638.407 27.3569 638.248 27.1376C638.248 27.1376 637.988 26.7945 637.737 26.4609C637.55 26.2226 637.364 25.9939 637.178 25.7556C636.834 26.0701 636.508 26.3465 636.182 26.5944C636.359 26.8231 636.545 27.0614 636.722 27.2997C636.964 27.6237 637.215 27.9478 637.215 27.9478C637.402 28.2147 637.625 28.5101 637.867 28.7961C637.96 28.92 638.072 29.0534 638.174 29.1868C638.537 28.9104 638.9 28.6531 639.282 28.4529ZM637.737 27.557L637.727 27.5475H637.737H637.746L637.737 27.557Z" fill="#E1E1E1"/>
<path d="M633.362 17.2319C633.523 18.849 634.644 20.8255 636.63 23.114C636.944 23.4639 637.219 23.776 637.248 23.8043C637.428 23.9935 637.609 24.1637 637.789 24.3434C637.932 24.4758 638.084 24.6176 638.226 24.7595C638.511 24.419 638.796 24.0881 639.081 23.7665C638.929 23.6152 638.787 23.4734 638.635 23.3221H638.644C638.502 23.1802 638.359 23.0478 638.226 22.8965C638.226 22.887 637.998 22.6506 637.742 22.3575C637.732 22.3575 637.732 22.3669 637.732 22.3669C635.87 20.2581 634.825 18.4518 634.682 17.0995L634.578 16.1444C634.378 14.357 634.226 12.9291 634.34 11.1228C634.663 10.6027 636.202 8.46549 637.732 6.39446C639.281 8.4844 640.829 10.6405 641.124 11.1228C641.238 12.9291 641.086 14.3476 640.886 16.1349L640.782 17.0995C640.658 18.3289 639.765 19.946 638.198 21.8279C638.473 22.14 638.739 22.4237 638.739 22.4237C638.863 22.5561 638.986 22.679 639.091 22.8019C640.915 20.6458 641.941 18.7734 642.093 17.2414L642.207 16.2768C642.406 14.4516 642.577 12.8723 642.444 10.8864V10.7824L642.397 10.6878C642.207 10.2339 639.727 6.85784 638.274 4.89083L637.732 4.17212L637.21 4.89083C635.746 6.85784 633.267 10.2339 633.077 10.6878L633.029 10.7824L633.02 10.8864C632.887 12.8818 633.058 14.4611 633.257 16.2768L633.362 17.2319ZM637.713 23.3315L637.723 23.341L637.713 23.3504L637.704 23.341L637.713 23.3315Z" fill="#E1E1E1"/>
<line x1="666" y1="19.5" x2="1276" y2="19.5" stroke="url(#paint1_linear_208_4850)"/>
<defs>
<linearGradient id="paint0_linear_208_4850" x1="610" y1="20.9999" x2="0" y2="20.9999" gradientUnits="userSpaceOnUse">
<stop stop-color="#E1E1E1"/>
<stop offset="1" stop-color="#E1E1E1" stop-opacity="0"/>
</linearGradient>
<linearGradient id="paint1_linear_208_4850" x1="666" y1="21" x2="1276" y2="21" gradientUnits="userSpaceOnUse">
<stop stop-color="#E1E1E1"/>
<stop offset="1" stop-color="#E1E1E1" stop-opacity="0"/>
</linearGradient>
</defs>
</svg>
