<svg width="25" height="24" viewBox="0 0 25 24" fill="none" xmlns="http://www.w3.org/2000/svg">
<path fill-rule="evenodd" clip-rule="evenodd" d="M10.3018 4.52817C9.41289 4.1048 8.35698 3.91174 7.23317 4.30156C4.36628 5.29603 2.76316 9.1878 4.42292 12.7192C5.0726 14.1014 6.58783 15.5879 8.29665 16.9085C9.86725 18.1222 11.5368 19.1472 12.6794 19.7665C13.8219 19.1472 15.4915 18.1222 17.0621 16.9085C18.7709 15.5879 20.2861 14.1014 20.9358 12.7192C22.5956 9.1878 20.9924 5.29603 18.1256 4.30156C17.0017 3.91174 15.9458 4.1048 15.0569 4.52817C14.1587 4.95597 13.4623 5.60619 13.1082 6.05767L12.6794 6.60452L12.2505 6.05767C11.8964 5.60619 11.2001 4.95597 10.3018 4.52817ZM12.6794 4.90307C12.2115 4.43211 11.5572 3.91867 10.7706 3.54401C9.69256 3.03059 8.33536 2.76544 6.87593 3.27168C3.28469 4.5174 1.55458 9.17906 3.43637 13.1828C4.20332 14.8146 5.89979 16.4339 7.6301 17.771C9.3781 19.1218 11.2388 20.2433 12.4259 20.8669L12.6794 21L12.9328 20.8669C14.12 20.2433 15.9806 19.1218 17.7286 17.771C19.4589 16.4339 21.1554 14.8146 21.9224 13.1828C23.8041 9.17906 22.074 4.5174 18.4828 3.27168C17.0234 2.76544 15.6662 3.03059 14.5882 3.54401C13.8015 3.91867 13.1472 4.43211 12.6794 4.90307Z" fill="#091278"/>
</svg>
