<svg width="40" height="40" viewBox="0 0 40 40" fill="none" xmlns="http://www.w3.org/2000/svg">
<path fill-rule="evenodd" clip-rule="evenodd" d="M4.39941 12.9502H15.074V14.3388H4.39941V12.9502Z" fill="#091278"/>
<path fill-rule="evenodd" clip-rule="evenodd" d="M6.95996 15.7275H17.6345V17.1161H6.95996V15.7275Z" fill="#091278"/>
<path fill-rule="evenodd" clip-rule="evenodd" d="M5.48438 21.3691L12.3404 21.3691L12.3404 22.7577L5.48437 22.7577L5.48438 21.3691Z" fill="#091278"/>
<path fill-rule="evenodd" clip-rule="evenodd" d="M20.2383 25.2744L27.0943 25.2744L27.0943 26.663L20.2383 26.663L20.2383 25.2744Z" fill="#091278"/>
<path fill-rule="evenodd" clip-rule="evenodd" d="M1.66602 18.5049L15.1177 18.5049L15.1177 19.8934L1.66602 19.8934L1.66602 18.5049Z" fill="#091278"/>
<path fill-rule="evenodd" clip-rule="evenodd" d="M15.925 27.4274C16.7159 27.4274 17.3571 26.7863 17.3571 25.9953C17.3571 25.2044 16.7159 24.5632 15.925 24.5632C15.1341 24.5632 14.4929 25.2044 14.4929 25.9953C14.4929 26.7863 15.1341 27.4274 15.925 27.4274ZM15.925 29.1459C17.6651 29.1459 19.0756 27.7354 19.0756 25.9953C19.0756 24.2553 17.6651 22.8447 15.925 22.8447C14.185 22.8447 12.7744 24.2553 12.7744 25.9953C12.7744 27.7354 14.185 29.1459 15.925 29.1459Z" fill="#091278"/>
<path fill-rule="evenodd" clip-rule="evenodd" d="M31.4592 27.4274C32.2501 27.4274 32.8913 26.7863 32.8913 25.9953C32.8913 25.2044 32.2501 24.5632 31.4592 24.5632C30.6683 24.5632 30.0271 25.2044 30.0271 25.9953C30.0271 26.7863 30.6683 27.4274 31.4592 27.4274ZM31.4592 29.1459C33.1992 29.1459 34.6098 27.7354 34.6098 25.9953C34.6098 24.2553 33.1992 22.8447 31.4592 22.8447C29.7192 22.8447 28.3086 24.2553 28.3086 25.9953C28.3086 27.7354 29.7192 29.1459 31.4592 29.1459Z" fill="#091278"/>
<path fill-rule="evenodd" clip-rule="evenodd" d="M24.7509 10C29.0664 10 32.2436 11.8228 34.4388 14.0878C36.6047 16.3225 37.8267 18.9957 38.2986 20.8223L38.3328 20.8223V23.0177C38.3328 24.3992 37.9291 25.439 37.0314 26.0707C36.2082 26.65 35.1411 26.7495 34.1671 26.7495V25.0138C35.1023 25.0138 35.6842 24.8964 36.0325 24.6512C36.3065 24.4584 36.5971 24.0663 36.5971 23.0177V21.1767C36.1753 19.6039 35.0915 17.2552 33.1924 15.2958C31.2697 13.312 28.5238 11.7357 24.7509 11.7357H8.95605V10H24.7509Z" fill="#091278"/>
<path fill-rule="evenodd" clip-rule="evenodd" d="M8.91198 23.8079V22.0195H10.3005V23.8796L10.2965 23.917C10.2735 24.1283 10.3151 24.4493 10.4848 24.6954C10.6259 24.9 10.9155 25.1438 11.6023 25.1438H13.9889V26.5324H11.6023C10.5187 26.5324 9.77414 26.1108 9.34169 25.4837C8.94989 24.9155 8.8712 24.2611 8.91198 23.8079Z" fill="#091278"/>
<path fill-rule="evenodd" clip-rule="evenodd" d="M26.4428 16.5888V13.2109H27.8313V16.6029L27.8312 16.6103C27.8263 16.8367 27.894 17.1902 28.0915 17.4668C28.2626 17.7064 28.5642 17.9407 29.1765 17.9407H33.7761V19.3293H29.1765C28.1225 19.3293 27.3971 18.8838 26.9615 18.2737C26.5546 17.7038 26.4347 17.0421 26.4428 16.5888Z" fill="#091278"/>
</svg>
