<svg width="40" height="40" viewBox="0 0 40 40" fill="none" xmlns="http://www.w3.org/2000/svg">
<path d="M29.2654 35.9379C28.8408 35.9329 28.4254 35.8142 28.0622 35.5941L20.1872 30.5941C20.1322 30.5558 20.0668 30.5353 19.9997 30.5353C19.9327 30.5353 19.8673 30.5558 19.8122 30.5941L12.4841 35.2348C12.0671 35.507 11.5764 35.644 11.0787 35.6272C10.581 35.6105 10.1006 35.4407 9.70287 35.141C9.28362 34.8405 8.96617 34.4191 8.79304 33.9332C8.61991 33.4473 8.59935 32.9202 8.73412 32.4223L10.8435 24.1254C10.8629 24.0466 10.8601 23.9639 10.8353 23.8867C10.8104 23.8094 10.7646 23.7406 10.7029 23.6879L3.64037 17.7973C3.28495 17.5032 3.0263 17.109 2.8981 16.6658C2.7699 16.2227 2.7781 15.7513 2.92162 15.3129C3.06093 14.8825 3.32586 14.5038 3.6823 14.2253C4.03873 13.9468 4.47037 13.7814 4.92162 13.7504L14.156 13.1566C14.2264 13.1487 14.2931 13.121 14.3484 13.0768C14.4037 13.0326 14.4453 12.9736 14.4685 12.9066L17.906 4.25038C18.0714 3.82991 18.3596 3.469 18.7331 3.21463C19.1065 2.96026 19.5479 2.82422 19.9997 2.82422C20.4516 2.82422 20.893 2.96026 21.2664 3.21463C21.6398 3.469 21.9281 3.82991 22.0935 4.25038L25.531 12.9066C25.5542 12.9736 25.5958 13.0326 25.6511 13.0768C25.7064 13.121 25.7731 13.1487 25.8435 13.1566L35.0779 13.7504C35.5291 13.7814 35.9608 13.9468 36.3172 14.2253C36.6736 14.5038 36.9386 14.8825 37.0779 15.3129C37.2214 15.7513 37.2296 16.2227 37.1014 16.6658C36.9732 17.109 36.7145 17.5032 36.3591 17.7973L29.2966 23.6879C29.2349 23.7406 29.1891 23.8094 29.1642 23.8867C29.1394 23.9639 29.1366 24.0466 29.156 24.1254L31.4372 33.0785C31.5535 33.5257 31.5321 33.9975 31.376 34.4323C31.2199 34.8672 30.9363 35.2449 30.5622 35.516C30.185 35.7893 29.7312 35.9369 29.2654 35.9379ZM19.9997 28.6723C20.4208 28.6676 20.8338 28.7871 21.1872 29.016L29.0779 34.0004C29.136 34.04 29.2054 34.0599 29.2758 34.0571C29.3461 34.0543 29.4137 34.0289 29.4685 33.9848C29.5374 33.934 29.5893 33.8635 29.6172 33.7825C29.6451 33.7016 29.6478 33.6141 29.6247 33.5316L27.3435 24.5785C27.2365 24.1592 27.2501 23.7182 27.3828 23.3063C27.5155 22.8944 27.7619 22.5284 28.0935 22.2504L35.156 16.3598C35.2232 16.308 35.2717 16.2358 35.2943 16.1541C35.3168 16.0724 35.3122 15.9855 35.281 15.9066C35.2642 15.8305 35.2231 15.7619 35.1639 15.7112C35.1047 15.6604 35.0307 15.6303 34.9529 15.6254L25.7341 15.0316C25.3091 14.9977 24.9018 14.8469 24.5571 14.596C24.2124 14.3451 23.9438 14.0038 23.781 13.6098L20.3435 4.93788C20.321 4.86422 20.2755 4.79972 20.2136 4.75389C20.1517 4.70806 20.0768 4.68332 19.9997 4.68332C19.9227 4.68332 19.8478 4.70806 19.7859 4.75389C19.724 4.79972 19.6785 4.86422 19.656 4.93788L16.2185 13.6098C16.0556 14.0038 15.787 14.3451 15.4424 14.596C15.0977 14.8469 14.6904 14.9977 14.2654 15.0316L5.04662 15.6254C4.96882 15.6303 4.89474 15.6604 4.83556 15.7112C4.77637 15.7619 4.73528 15.8305 4.71849 15.9066C4.68732 15.9855 4.68266 16.0724 4.70521 16.1541C4.72776 16.2358 4.7763 16.308 4.84349 16.3598L11.906 22.2504C12.2376 22.5284 12.484 22.8944 12.6167 23.3063C12.7494 23.7182 12.763 24.1592 12.656 24.5785L10.5466 32.891C10.5095 33.0244 10.5135 33.1658 10.5581 33.2968C10.6028 33.4279 10.6859 33.5424 10.7966 33.6254C10.8947 33.6993 11.0129 33.7418 11.1355 33.7474C11.2582 33.7529 11.3797 33.7213 11.4841 33.6566L18.8122 29.016C19.1657 28.7871 19.5787 28.6676 19.9997 28.6723Z" fill="#091278"/>
</svg>
