<svg width="24" height="24" viewBox="0 0 24 24" fill="none" xmlns="http://www.w3.org/2000/svg">
<path fill-rule="evenodd" clip-rule="evenodd" d="M9.63509 4.52817C8.74615 4.1048 7.69023 3.91174 6.56642 4.30156C3.69953 5.29603 2.09642 9.18779 3.75617 12.7192C4.40585 14.1014 5.92109 15.5879 7.6299 16.9085C9.2005 18.1222 10.8701 19.1472 12.0126 19.7665C13.1552 19.1472 14.8247 18.1222 16.3953 16.9085C18.1041 15.5879 19.6194 14.1014 20.2691 12.7192C21.9288 9.18779 20.3257 5.29603 17.4588 4.30156C16.335 3.91174 15.2791 4.1048 14.3901 4.52817C13.4919 4.95597 12.7956 5.60619 12.4415 6.05767L12.0126 6.60452L11.5837 6.05767C11.2297 5.60619 10.5333 4.95597 9.63509 4.52817ZM12.0126 4.90307C11.5448 4.43211 10.8905 3.91867 10.1038 3.54401C9.02581 3.03059 7.66861 2.76544 6.20918 3.27168C2.61794 4.5174 0.887828 9.17906 2.76962 13.1829C3.53657 14.8146 5.23304 16.4339 6.96335 17.771C8.71135 19.1218 10.572 20.2433 11.7592 20.8669L12.0126 21L12.2661 20.8669C13.4532 20.2433 15.3139 19.1218 17.0619 17.771C18.7922 16.4339 20.4887 14.8146 21.2556 13.1829C23.1374 9.17906 21.4073 4.5174 17.8161 3.27168C16.3566 2.76544 14.9994 3.03059 13.9214 3.54401C13.1348 3.91867 12.4805 4.43211 12.0126 4.90307Z" fill="#363636"/>
</svg>
