<svg width="18" height="18" viewBox="0 0 18 18" fill="none" xmlns="http://www.w3.org/2000/svg">
<path d="M14.064 18H3.936C2.89211 18 1.89097 17.5853 1.15283 16.8472C0.414685 16.109 0 15.1079 0 14.064V3.936C0 2.89211 0.414685 1.89097 1.15283 1.15283C1.89097 0.414685 2.89211 0 3.936 0H14.064C15.1079 0 16.109 0.414685 16.8472 1.15283C17.5853 1.89097 18 2.89211 18 3.936V14.064C18 15.1079 17.5853 16.109 16.8472 16.8472C16.109 17.5853 15.1079 18 14.064 18ZM3.936 1.2C3.21085 1.20159 2.51586 1.49035 2.00311 2.00311C1.49035 2.51586 1.20159 3.21085 1.2 3.936V14.064C1.20159 14.7891 1.49035 15.4841 2.00311 15.9969C2.51586 16.5097 3.21085 16.7984 3.936 16.8H14.064C14.7891 16.7984 15.4841 16.5097 15.9969 15.9969C16.5097 15.4841 16.7984 14.7891 16.8 14.064V3.936C16.7984 3.21085 16.5097 2.51586 15.9969 2.00311C15.4841 1.49035 14.7891 1.20159 14.064 1.2H3.936Z" fill="#363636"/>
<path d="M9.0002 13.8002C8.05085 13.8002 7.12282 13.5187 6.33346 12.9913C5.5441 12.4638 4.92888 11.7142 4.56558 10.8371C4.20228 9.95999 4.10722 8.99487 4.29243 8.06376C4.47764 7.13266 4.93479 6.27738 5.60608 5.60608C6.27738 4.93479 7.13266 4.47764 8.06376 4.29243C8.99487 4.10722 9.95999 4.20228 10.8371 4.56558C11.7142 4.92888 12.4638 5.5441 12.9913 6.33346C13.5187 7.12282 13.8002 8.05085 13.8002 9.0002C13.8002 10.2732 13.2945 11.4941 12.3943 12.3943C11.4941 13.2945 10.2732 13.8002 9.0002 13.8002ZM9.0002 5.4002C8.28819 5.4002 7.59216 5.61133 7.00014 6.00691C6.40813 6.40248 5.94671 6.96472 5.67423 7.62254C5.40176 8.28035 5.33046 9.00419 5.46937 9.70252C5.60828 10.4009 5.95114 11.0423 6.45461 11.5458C6.95808 12.0493 7.59954 12.3921 8.29787 12.531C8.9962 12.6699 9.72004 12.5986 10.3779 12.3262C11.0357 12.0537 11.5979 11.5923 11.9935 11.0003C12.3891 10.4082 12.6002 9.71221 12.6002 9.0002C12.6002 8.04542 12.2209 7.12974 11.5458 6.45461C10.8707 5.77948 9.95498 5.4002 9.0002 5.4002Z" fill="#363636"/>
<path d="M13.7999 5.4C13.5625 5.4 13.3305 5.32962 13.1332 5.19776C12.9358 5.06591 12.782 4.87849 12.6912 4.65922C12.6004 4.43995 12.5766 4.19867 12.6229 3.96589C12.6692 3.73312 12.7835 3.5193 12.9513 3.35147C13.1191 3.18365 13.333 3.06936 13.5657 3.02306C13.7985 2.97676 14.0398 3.00052 14.2591 3.09135C14.4783 3.18217 14.6658 3.33598 14.7976 3.53332C14.9295 3.73066 14.9999 3.96266 14.9999 4.2C14.9999 4.51826 14.8734 4.82349 14.6484 5.04853C14.4233 5.27357 14.1181 5.4 13.7999 5.4Z" fill="#363636"/>
</svg>
