<svg width="15" height="16" viewBox="0 0 15 16" fill="none" xmlns="http://www.w3.org/2000/svg">
<path fill-rule="evenodd" clip-rule="evenodd" d="M7.38959 15.9542C7.46467 15.9849 7.54506 16.0005 7.62616 16C7.70726 16.0005 7.78765 15.9849 7.86273 15.9542C7.93781 15.9236 8.00609 15.8784 8.06367 15.8213L12.4203 11.5078C13.0493 10.8829 13.5485 10.1398 13.8891 9.32129C14.2298 8.50273 14.4051 7.62488 14.4051 6.73828C14.4051 5.85167 14.2298 4.97382 13.8891 4.15527C13.5485 3.33671 13.0493 2.59362 12.4203 1.96877C11.1435 0.707368 9.42099 0 7.62616 0C5.83133 0 4.10882 0.707368 2.83201 1.96877C2.20301 2.59362 1.70382 3.33671 1.36318 4.15527C1.02254 4.97382 0.847168 5.85167 0.847168 6.73828C0.847168 7.62488 1.02254 8.50273 1.36318 9.32129C1.70382 10.1398 2.20301 10.8829 2.83201 11.5078L7.18865 15.8213C7.24622 15.8784 7.31451 15.9236 7.38959 15.9542ZM3.70087 2.82531C4.74346 1.78796 6.15541 1.20722 7.62616 1.21083C9.0969 1.20722 10.5089 1.78796 11.5514 2.82531C12.0649 3.33559 12.4724 3.94237 12.7505 4.61074C13.0286 5.27912 13.1717 5.99588 13.1717 6.71979C13.1717 7.4437 13.0286 8.16047 12.7505 8.82884C12.4724 9.49721 12.0649 10.104 11.5514 10.6143L7.62616 14.5149L3.70087 10.6143C3.18739 10.104 2.77989 9.49721 2.50181 8.82884C2.22374 8.16047 2.08058 7.4437 2.08058 6.71979C2.08058 5.99588 2.22374 5.27912 2.50181 4.61074C2.77989 3.94237 3.18739 3.33559 3.70087 2.82531ZM6.11083 8.57867C6.52195 8.85338 7.0053 9 7.49976 9C8.1628 9 8.79868 8.73661 9.26752 8.26777C9.73636 7.79893 9.99976 7.16304 9.99976 6.5C9.99976 6.00555 9.85313 5.5222 9.57843 5.11108C9.30373 4.69995 8.91328 4.37952 8.45647 4.1903C7.99965 4.00108 7.49698 3.95157 7.01203 4.04804C6.52708 4.1445 6.08162 4.3826 5.73199 4.73223C5.38236 5.08187 5.14426 5.52732 5.04779 6.01228C4.95133 6.49723 5.00084 6.99989 5.19006 7.45671C5.37928 7.91352 5.69971 8.30397 6.11083 8.57867ZM6.6664 5.2528C6.91307 5.08797 7.20308 5 7.49976 5C7.89758 5 8.27911 5.15804 8.56042 5.43934C8.84172 5.72064 8.99976 6.10218 8.99976 6.5C8.99976 6.79667 8.91178 7.08668 8.74696 7.33336C8.58214 7.58003 8.34787 7.77229 8.07378 7.88582C7.79969 7.99935 7.49809 8.02906 7.20712 7.97118C6.91615 7.9133 6.64888 7.77044 6.4391 7.56066C6.22932 7.35088 6.08646 7.08361 6.02858 6.79264C5.9707 6.50166 6.00041 6.20006 6.11394 5.92598C6.22747 5.65189 6.41973 5.41762 6.6664 5.2528Z" fill="#091278"/>
</svg>
