<svg width="24" height="24" viewBox="0 0 24 24" fill="none" xmlns="http://www.w3.org/2000/svg">
<path fill-rule="evenodd" clip-rule="evenodd" d="M12.099 7.16831C12.6458 7.16831 13.0891 6.72503 13.0891 6.17821C13.0891 5.6314 12.6458 5.18812 12.099 5.18812C11.5522 5.18812 11.1089 5.6314 11.1089 6.17821C11.1089 6.72503 11.5522 7.16831 12.099 7.16831ZM14.245 6.55334C14.0673 7.57758 13.1741 8.35643 12.099 8.35643C11.2376 8.35643 10.4929 7.85636 10.1395 7.13068L7.61497 7.4857L10.8686 15.6616L10.8143 15.6832H10.9109C10.9109 18.1036 8.90147 20.0396 6.45544 20.0396C4.00941 20.0396 2 18.1036 2 15.6832H2.09626L2.04195 15.6616L5.58896 6.74855L5.56445 6.57424L9.93158 5.96012C10.041 4.85953 10.9696 4 12.099 4C13.0167 4 13.8019 4.56752 14.1227 5.37075L16.7427 5.0023L16.7476 4.9901H16.8295L18.2377 4.79207L18.2655 4.9901H18.3416L21.9579 14.0773L21.9035 14.099H22C22 16.5194 19.9905 18.4554 17.5445 18.4554C15.0985 18.4554 13.0891 16.5194 13.0891 14.099H13.1857L13.1312 14.0773L16.237 6.27323L14.245 6.55334ZM14.2899 14.3792C14.4358 15.9859 15.8243 17.2673 17.5445 17.2673C19.2648 17.2673 20.6534 15.9858 20.7992 14.3789L17.5446 6.20066L14.2899 14.3792ZM6.45544 18.8515C4.73507 18.8515 3.34645 17.5699 3.20075 15.9629L6.45529 7.78488L9.71007 15.9636C9.56406 17.5702 8.17559 18.8515 6.45544 18.8515Z" fill="#091278"/>
</svg>
