<svg width="40" height="40" viewBox="0 0 40 40" fill="none" xmlns="http://www.w3.org/2000/svg">
<path d="M3.33301 12.7083C3.33301 11.327 3.88174 10.0022 4.85849 9.02549C5.83525 8.04873 7.16001 7.5 8.54134 7.5H31.458C32.8393 7.5 34.1641 8.04873 35.1409 9.02549C36.1176 10.0022 36.6663 11.327 36.6663 12.7083V27.2917C36.6663 28.673 36.1176 29.9978 35.1409 30.9745C34.1641 31.9513 32.8393 32.5 31.458 32.5H8.54134C7.16001 32.5 5.83525 31.9513 4.85849 30.9745C3.88174 29.9978 3.33301 28.673 3.33301 27.2917V12.7083ZM8.54134 9.58333C7.71254 9.58333 6.91768 9.91257 6.33163 10.4986C5.74558 11.0847 5.41634 11.8795 5.41634 12.7083V15.4167H34.583V12.7083C34.583 11.8795 34.2538 11.0847 33.6677 10.4986C33.0817 9.91257 32.2868 9.58333 31.458 9.58333H8.54134ZM5.41634 27.2917C5.41634 28.1205 5.74558 28.9153 6.33163 29.5014C6.91768 30.0874 7.71254 30.4167 8.54134 30.4167H31.458C32.2868 30.4167 33.0817 30.0874 33.6677 29.5014C34.2538 28.9153 34.583 28.1205 34.583 27.2917V17.5H5.41634V27.2917ZM26.0413 24.5833C25.7651 24.5833 25.5001 24.6931 25.3048 24.8884C25.1094 25.0838 24.9997 25.3487 24.9997 25.625C24.9997 25.9013 25.1094 26.1662 25.3048 26.3616C25.5001 26.5569 25.7651 26.6667 26.0413 26.6667H30.6247C30.9009 26.6667 31.1659 26.5569 31.3612 26.3616C31.5566 26.1662 31.6663 25.9013 31.6663 25.625C31.6663 25.3487 31.5566 25.0838 31.3612 24.8884C31.1659 24.6931 30.9009 24.5833 30.6247 24.5833H26.0413Z" fill="#091278"/>
</svg>
