<svg width="24" height="24" viewBox="0 0 24 24" fill="none" xmlns="http://www.w3.org/2000/svg">
<path d="M16.5 20.625C9.2625 20.625 3.375 14.7375 3.375 7.49998C3.37653 6.31444 3.8092 5.16993 4.59232 4.27986C5.37544 3.38979 6.45556 2.81493 7.63125 2.66248C7.87316 2.63428 8.11773 2.68469 8.32877 2.80625C8.53982 2.92781 8.70613 3.11407 8.80313 3.33748L10.6875 7.73435C10.7605 7.90497 10.7901 8.09098 10.7737 8.27582C10.7574 8.46065 10.6955 8.63857 10.5938 8.79373L9.0375 11.175C9.00103 11.228 8.97922 11.2898 8.97429 11.354C8.96935 11.4182 8.98145 11.4826 9.00937 11.5406C9.74828 13.0565 10.9771 14.2786 12.4969 15.0094C12.5532 15.0374 12.6161 15.0496 12.6789 15.0447C12.7417 15.0397 12.8019 15.0178 12.8531 14.9812L15.2062 13.4156C15.3613 13.3099 15.5406 13.245 15.7274 13.227C15.9142 13.209 16.1026 13.2384 16.275 13.3125L20.6625 15.1969C20.8859 15.2938 21.0722 15.4602 21.1937 15.6712C21.3153 15.8822 21.3657 16.1268 21.3375 16.3687C21.185 17.5444 20.6102 18.6245 19.7201 19.4077C18.83 20.1908 17.6855 20.6234 16.5 20.625ZM7.77188 3.4031H7.725C6.72995 3.5328 5.81604 4.01996 5.15367 4.77376C4.4913 5.52755 4.12568 6.49651 4.125 7.49998C4.12748 10.7813 5.43207 13.9275 7.7523 16.2477C10.0725 18.5679 13.2187 19.8725 16.5 19.875C17.5035 19.8743 18.4724 19.5087 19.2262 18.8463C19.98 18.1839 20.4672 17.27 20.5969 16.275C20.6047 16.1942 20.586 16.113 20.5438 16.0437C20.5015 15.9744 20.4379 15.9207 20.3625 15.8906L15.975 14.0062C15.918 13.9809 15.8555 13.9702 15.7933 13.9751C15.7311 13.98 15.6711 14.0004 15.6188 14.0344L13.275 15.6C13.114 15.7093 12.9272 15.7746 12.7331 15.7894C12.539 15.8042 12.3445 15.768 12.1688 15.6844C10.5007 14.8759 9.15094 13.5328 8.33438 11.8687C8.25117 11.6933 8.21437 11.4995 8.2275 11.3058C8.24064 11.1121 8.30326 10.925 8.40937 10.7625L9.96563 8.38123C10.0004 8.32921 10.0213 8.26915 10.0262 8.20677C10.0311 8.1444 10.0199 8.0818 9.99375 8.02498L8.10938 3.63748C8.08308 3.56909 8.03684 3.51018 7.97666 3.46839C7.91648 3.4266 7.84514 3.40385 7.77188 3.4031Z" fill="#7D7D7D"/>
</svg>
