<svg width="24" height="24" viewBox="0 0 24 24" fill="none" xmlns="http://www.w3.org/2000/svg">
<path fill-rule="evenodd" clip-rule="evenodd" d="M12 18.0859L18.9395 8.9543L15.9901 4.99985L8.01 4.99985L5.06062 8.9543L12 18.0859ZM12 16.366L17.6369 8.94844L15.468 6.0405L8.53206 6.0405L6.3632 8.94844L12 16.366Z" fill="#091278"/>
<path fill-rule="evenodd" clip-rule="evenodd" d="M14.6522 10.5937L11.9999 18.0864L9.3476 10.5937H10.4515L11.9999 14.9679L13.5483 10.5937H14.6522ZM14.7405 7.57582L13.8548 5.02637L10.145 5.02637L9.25928 7.57582H10.3609L10.8851 6.06701L13.1146 6.06701L13.6388 7.57582H14.7405Z" fill="#091278"/>
<path fill-rule="evenodd" clip-rule="evenodd" d="M18.3479 9.6051H5.80811V8.56445H18.3479V9.6051Z" fill="#091278"/>
</svg>
