<svg width="61" height="60" viewBox="0 0 61 60" fill="none" xmlns="http://www.w3.org/2000/svg">
<rect x="0.75" width="60" height="60" rx="30" fill="#091278"/>
<path fill-rule="evenodd" clip-rule="evenodd" d="M30.75 40.1433L42.3157 24.9239L37.4 18.3332L24.0999 18.3332L19.1843 24.9239L30.75 40.1433ZM30.75 37.2768L40.1447 24.9141L36.5299 20.0676L24.97 20.0676L21.3552 24.9141L30.75 37.2768Z" fill="white"/>
<path fill-rule="evenodd" clip-rule="evenodd" d="M35.1705 27.6556L30.7501 40.1435L26.3296 27.6556H28.1694L30.7501 34.9459L33.3307 27.6556H35.1705ZM35.3177 22.6258L33.8415 18.3767L27.6586 18.3767L26.1824 22.6258H28.0185L28.8921 20.1111L32.608 20.1111L33.4816 22.6258H35.3177Z" fill="white"/>
<path fill-rule="evenodd" clip-rule="evenodd" d="M41.3298 26.0078H20.4302V24.2734H41.3298V26.0078Z" fill="white"/>
</svg>
