<svg width="61" height="60" viewBox="0 0 61 60" fill="none" xmlns="http://www.w3.org/2000/svg">
<rect x="0.25" width="60" height="60" rx="30" fill="#091278"/>
<path fill-rule="evenodd" clip-rule="evenodd" d="M28.3589 34.2553H25.0492V40.4964H28.3589V34.2553ZM23.158 32.364V42.3877H30.2502V32.364H23.158Z" fill="white"/>
<path fill-rule="evenodd" clip-rule="evenodd" d="M42.8436 23.8764L39.4622 18.1797H21.0379L17.6566 23.8764C17.191 24.5216 16.9167 25.3139 16.9167 26.1702C16.9167 28.3376 18.6737 30.0946 20.8411 30.0946H21.1248C21.8856 30.0946 22.5959 29.8781 23.1974 29.5033C23.5378 29.2911 23.8434 29.0283 24.1035 28.7253C24.3636 29.0283 24.6692 29.2911 25.0097 29.5033C25.6111 29.8781 26.3214 30.0946 27.0822 30.0946H27.2714C28.0322 30.0946 28.7425 29.8781 29.3439 29.5033C29.6844 29.2911 29.9899 29.0283 30.2501 28.7253C30.5102 29.0283 30.8158 29.2911 31.1562 29.5033C31.7577 29.8781 32.468 30.0946 33.2288 30.0946H33.4179C34.1788 30.0946 34.889 29.8781 35.4905 29.5033C35.8309 29.2911 36.1365 29.0283 36.3967 28.7253C36.6568 29.0283 36.9624 29.2911 37.3028 29.5033C37.9043 29.8781 38.6145 30.0946 39.3754 30.0946H39.6591C41.8264 30.0946 43.5834 28.3376 43.5834 26.1702C43.5834 25.3139 43.3091 24.5216 42.8436 23.8764ZM22.1147 20.0709L19.2397 24.9145L19.1903 24.9831C18.9494 25.3168 18.808 25.7242 18.808 26.1702C18.808 27.2931 19.7182 28.2033 20.8411 28.2033H21.1248C21.7416 28.2033 22.2928 27.9309 22.6686 27.4933L24.1035 25.822L25.5384 27.4933C25.9142 27.9309 26.4654 28.2033 27.0822 28.2033H27.2714C27.8882 28.2033 28.4394 27.9309 28.8151 27.4933L30.2501 25.822L31.685 27.4933C32.0608 27.9309 32.612 28.2033 33.2288 28.2033H33.4179C34.0348 28.2033 34.586 27.9309 34.9617 27.4933L36.3967 25.822L37.8316 27.4933C38.2073 27.9309 38.7585 28.2033 39.3754 28.2033H39.6591C40.7819 28.2033 41.6922 27.2931 41.6922 26.1702C41.6922 25.7242 41.5507 25.3168 41.3099 24.9831L41.2604 24.9145L38.3855 20.0709H22.1147Z" fill="white"/>
<path fill-rule="evenodd" clip-rule="evenodd" d="M21.0775 30.0945V40.4964H39.4227V30.0945H39.3754C38.2869 30.0945 37.2676 29.7946 36.3967 29.2744C35.5258 29.7946 34.5065 30.0945 33.418 30.0945H33.2288C32.1403 30.0945 31.121 29.7946 30.2501 29.2744C29.3792 29.7946 28.3599 30.0945 27.2714 30.0945H27.0823C25.9937 30.0945 24.9745 29.7946 24.1035 29.2744C23.2326 29.7946 22.2134 30.0945 21.1248 30.0945H21.0775ZM19.1863 42.3877H41.3139V27.8383C40.8111 28.0725 40.2504 28.2033 39.6591 28.2033H39.3754C38.6146 28.2033 37.9043 27.9868 37.3028 27.612C36.9624 27.3998 36.6568 27.137 36.3967 26.834C36.1365 27.137 35.831 27.3998 35.4905 27.612C34.8891 27.9868 34.1788 28.2033 33.418 28.2033H33.2288C32.468 28.2033 31.7577 27.9868 31.1563 27.612C30.8158 27.3998 30.5102 27.137 30.2501 26.834C29.99 27.137 29.6844 27.3998 29.344 27.612C28.7425 27.9868 28.0322 28.2033 27.2714 28.2033H27.0823C26.3214 28.2033 25.6111 27.9868 25.0097 27.612C24.6693 27.3998 24.3637 27.137 24.1035 26.834C23.8434 27.137 23.5378 27.3998 23.1974 27.612C22.5959 27.9868 21.8857 28.2033 21.1248 28.2033H20.8411C20.2499 28.2033 19.6891 28.0725 19.1863 27.8383V42.3877Z" fill="white"/>
<path fill-rule="evenodd" clip-rule="evenodd" d="M37.3426 35.2956H32.4253V33.4043H37.3426V35.2956Z" fill="white"/>
</svg>
