<svg width="50" height="50" viewBox="0 0 50 50" fill="none" xmlns="http://www.w3.org/2000/svg">
<g clip-path="url(#clip0_825_7816)">
<path fill-rule="evenodd" clip-rule="evenodd" d="M22.6837 30.2133H18.6293V37.8587H22.6837V30.2133ZM16.3125 27.8965V40.1754H25.0004V27.8965H16.3125Z" fill="#091278"/>
<path fill-rule="evenodd" clip-rule="evenodd" d="M40.4274 17.499L36.2852 10.5205H13.7154L9.57328 17.499C9.00301 18.2893 8.66699 19.2599 8.66699 20.3089C8.66699 22.9639 10.8193 25.1163 13.4743 25.1163H13.8218C14.7539 25.1163 15.624 24.851 16.3607 24.3919C16.7778 24.132 17.1521 23.81 17.4708 23.4389C17.7894 23.81 18.1638 24.132 18.5808 24.3919C19.3176 24.851 20.1877 25.1163 21.1197 25.1163H21.3514C22.2834 25.1163 23.1535 24.851 23.8903 24.3919C24.3073 24.132 24.6817 23.81 25.0003 23.4389C25.319 23.81 25.6933 24.132 26.1104 24.3919C26.8471 24.851 27.7172 25.1163 28.6493 25.1163H28.8809C29.813 25.1163 30.6831 24.851 31.4198 24.3919C31.8369 24.132 32.2112 23.81 32.5299 23.4389C32.8485 23.81 33.2229 24.132 33.6399 24.3919C34.3767 24.851 35.2468 25.1163 36.1788 25.1163H36.5263C39.1813 25.1163 41.3337 22.9639 41.3337 20.3089C41.3337 19.2599 40.9976 18.2893 40.4274 17.499ZM15.0345 12.8373L11.5127 18.7706L11.452 18.8546C11.157 19.2635 10.9838 19.7625 10.9838 20.3089C10.9838 21.6844 12.0988 22.7995 13.4743 22.7995H13.8218C14.5775 22.7995 15.2527 22.4658 15.713 21.9297L17.4708 19.8823L19.2286 21.9297C19.6889 22.4658 20.3641 22.7995 21.1197 22.7995H21.3514C22.107 22.7995 22.7822 22.4658 23.2425 21.9297L25.0003 19.8823L26.7581 21.9297C27.2184 22.4658 27.8936 22.7995 28.6493 22.7995H28.8809C29.6366 22.7995 30.3118 22.4658 30.7721 21.9297L32.5299 19.8823L34.2877 21.9297C34.748 22.4658 35.4232 22.7995 36.1788 22.7995H36.5263C37.9018 22.7995 39.0169 21.6844 39.0169 20.3089C39.0169 19.7625 38.8436 19.2635 38.5486 18.8546L38.488 18.7706L34.9662 12.8373H15.0345Z" fill="#091278"/>
<path fill-rule="evenodd" clip-rule="evenodd" d="M13.7641 25.1162V37.8586H36.2369V25.1162H36.1789C34.8455 25.1162 33.5969 24.7488 32.53 24.1115C31.4631 24.7488 30.2145 25.1162 28.8811 25.1162H28.6494C27.3159 25.1162 26.0673 24.7488 25.0005 24.1115C23.9336 24.7488 22.685 25.1162 21.3515 25.1162H21.1198C19.7864 25.1162 18.5378 24.7488 17.4709 24.1115C16.404 24.7488 15.1554 25.1162 13.822 25.1162H13.7641ZM11.4473 40.1753H38.5536V22.3524C37.9377 22.6393 37.2508 22.7995 36.5265 22.7995H36.1789C35.2469 22.7995 34.3768 22.5342 33.6401 22.0751C33.223 21.8152 32.8487 21.4932 32.53 21.1221C32.2113 21.4932 31.837 21.8152 31.42 22.0751C30.6832 22.5342 29.8131 22.7995 28.8811 22.7995H28.6494C27.7174 22.7995 26.8473 22.5342 26.1105 22.0751C25.6935 21.8152 25.3191 21.4932 25.0005 21.1221C24.6818 21.4932 24.3075 21.8152 23.8904 22.0751C23.1536 22.5342 22.2836 22.7995 21.3515 22.7995H21.1198C20.1878 22.7995 19.3177 22.5342 18.5809 22.0751C18.1639 21.8152 17.7896 21.4932 17.4709 21.1221C17.1522 21.4932 16.7779 21.8152 16.3609 22.0751C15.6241 22.5342 14.754 22.7995 13.822 22.7995H13.4745C12.7501 22.7995 12.0633 22.6393 11.4473 22.3524V40.1753Z" fill="#091278"/>
<path fill-rule="evenodd" clip-rule="evenodd" d="M33.6887 31.4877H27.665V29.1709H33.6887V31.4877Z" fill="#091278"/>
</g>
<defs>
<clipPath id="clip0_825_7816">
<rect width="49" height="49" fill="white" transform="translate(0.5 0.5)"/>
</clipPath>
</defs>
</svg>
