<svg width="52" height="52" viewBox="0 0 52 52" fill="none" xmlns="http://www.w3.org/2000/svg">
<path fill-rule="evenodd" clip-rule="evenodd" d="M23.6351 18.5282C22.7461 18.1048 21.6902 17.9117 20.5664 18.3016C17.6995 19.296 16.0964 23.1878 17.7562 26.7192C18.4059 28.1014 19.9211 29.5879 21.6299 30.9085C23.2005 32.1222 24.8701 33.1472 26.0126 33.7665C27.1552 33.1472 28.8247 32.1222 30.3953 30.9085C32.1041 29.5879 33.6194 28.1014 34.2691 26.7192C35.9288 23.1878 34.3257 19.296 31.4588 18.3016C30.335 17.9117 29.2791 18.1048 28.3901 18.5282C27.4919 18.956 26.7956 19.6062 26.4415 20.0577L26.0126 20.6045L25.5837 20.0577C25.2297 19.6062 24.5333 18.956 23.6351 18.5282ZM26.0126 18.9031C25.5448 18.4321 24.8905 17.9187 24.1038 17.544C23.0258 17.0306 21.6686 16.7654 20.2092 17.2717C16.6179 18.5174 14.8878 23.1791 16.7696 27.1828C17.5366 28.8146 19.233 30.4339 20.9633 31.771C22.7113 33.1218 24.572 34.2433 25.7592 34.8669L26.0126 35L26.2661 34.8669C27.4532 34.2433 29.3139 33.1218 31.0619 31.771C32.7922 30.4339 34.4887 28.8146 35.2556 27.1828C37.1374 23.1791 35.4073 18.5174 31.816 17.2717C30.3566 16.7654 28.9994 17.0306 27.9214 17.544C27.1348 17.9187 26.4805 18.4321 26.0126 18.9031Z" fill="#091278"/>
<rect x="0.5" y="0.5" width="51" height="51" rx="25.5" stroke="#091278"/>
</svg>
