<svg width="16" height="13" viewBox="0 0 16 13" fill="none" xmlns="http://www.w3.org/2000/svg">
<path d="M8.28131 1.00096C10.3219 1.00096 11.9906 1.03533 13.5343 1.10408H13.5562H13.5781C14.3 1.10408 14.8906 1.79157 14.8906 2.63843V2.6728L14.8937 2.70718C14.9656 3.76966 14.9999 4.87276 14.9999 5.98524C15.0031 7.09773 14.9656 8.20083 14.8937 9.26331L14.8906 9.29769V9.33206C14.8906 9.7633 14.7437 10.1633 14.4718 10.4602C14.2281 10.7289 13.9093 10.8789 13.5781 10.8789H13.5531H13.5281C11.875 10.957 10.1282 10.9977 8.32819 10.9977C8.21882 10.9977 8.10632 10.9977 7.99694 10.9977H8.00007H7.99694C7.88445 10.9977 7.77195 10.9977 7.65945 10.9977C5.85323 10.9977 4.10639 10.957 2.46579 10.882H2.44079H2.41579C2.08455 10.882 1.76893 10.732 1.52518 10.4633C1.25644 10.1664 1.10644 9.76643 1.10644 9.33519V9.30081L1.10332 9.26644C1.02832 8.20083 0.993944 7.09773 1.00019 5.99462V5.99149V5.98837C0.997069 4.88526 1.03144 3.78528 1.10332 2.71968L1.10644 2.6853V2.65093C1.10644 1.80094 1.69393 1.11033 2.41579 1.11033H2.43767H2.45954C4.00639 1.03846 5.67511 1.00721 7.7157 1.00721H7.99694H8.28131M8.28131 0.000976562C8.18757 0.000976562 8.09382 0.000976562 8.00007 0.000976562C7.90632 0.000976562 7.81257 0.000976562 7.71882 0.000976562C5.91886 0.000976562 4.15014 0.0259762 2.41892 0.1041C1.14394 0.1041 0.109585 1.23845 0.109585 2.64468C0.0314614 3.76341 -0.00291304 4.87589 0.000211905 5.99149C-0.00291304 7.1071 0.0283364 8.21958 0.10646 9.33519C0.10646 10.7414 1.14082 11.8851 2.41579 11.8851C4.12826 11.9664 5.87511 12.0039 7.65945 12.0039C7.77195 12.0039 7.88757 12.0039 8.00007 12.0039C8.11257 12.0039 8.22507 12.0039 8.33444 12.0039C10.1188 12.0039 11.8656 11.9664 13.5812 11.8851C14.8593 11.8851 15.8937 10.7414 15.8937 9.33519C15.9687 8.21958 16.0031 7.10398 15.9999 5.98837C16.0031 4.87276 15.9687 3.76028 15.8937 2.64155C15.8937 1.23533 14.8593 0.107225 13.5812 0.107225C11.85 0.0259762 10.0844 0.000976562 8.28131 0.000976562Z" fill="#363636"/>
<path d="M6.46899 9.05731V2.91992L11.0002 5.98862L6.46899 9.05731Z" fill="#363636"/>
</svg>
